<svg height="511pt" viewBox="0 0 511.97976 511" width="511pt" xmlns="http://www.w3.org/2000/svg"><path d="m289.347656 42.046875c-10.539062-13.167969-24.453125-23.234375-40.253906-29.132813-1.703125-.671874-3.644531-.222656-4.878906 1.128907-1.234375 1.351562-1.503906 3.328125-.683594 4.960937 11.792969 22.765625 18.964844 47.636719 21.097656 73.183594l44.140625-9.625zm0 0" fill="#7f5b53"/><path d="m66.1875 340.328125c-3.363281.019531-6.441406-1.875-7.945312-4.878906l-8.828126-17.65625c-2.179687-4.363281-.410156-9.667969 3.953126-11.847657 4.367187-2.179687 9.667968-.40625 11.847656 3.957032l8.828125 17.652344c1.363281 2.730468 1.222656 5.972656-.378907 8.570312-1.597656 2.601562-4.425781 4.191406-7.476562 4.203125zm0 0" fill="#95a5a5"/><path d="m271.039062 348.398438c22.019532 25.746093 40.6875 54.179687 55.5625 84.621093 26.480469 52.964844-61.792968 79.449219-61.792968 79.449219h238.34375c4.875 0 8.828125-3.953125 8.828125-8.828125v-348.691406c0-2.777344-1.308594-5.394531-3.53125-7.0625l-26.070313-19.550781c-1.21875-.917969-1.878906-2.40625-1.742187-3.929688.140625-1.523438 1.054687-2.863281 2.425781-3.546875l22.527344-11.265625c1.367187-.683594 2.285156-2.027344 2.421875-3.550781.140625-1.519531-.519531-3.007813-1.742188-3.925781l-25.953125-19.421876c-.960937-.714843-1.585937-1.789062-1.738281-2.976562-.148437-1.1875.1875-2.382812.933594-3.316406l25.265625-31.621094c1.105468-1.429688 1.230468-3.390625.308594-4.949219-.921876-1.554687-2.699219-2.394531-4.484376-2.113281l-157.449218 26.015625-48.921875 51.492187zm0 0" fill="#7f5b53"/><path d="m20.195312 295.484375-17.390624-21.363281c-3.511719-7.003906-3.734376-15.207032-.617188-22.394532 3.117188-7.191406 9.257812-12.628906 16.773438-14.855468l17.300781-4.328125c.882812 1.679687 25.070312 51.644531-16.066407 62.941406zm0 0" fill="#2c2f38"/><path d="m435.710938 284.714844-44.402344 5.5625c-1.863282.210937-3.390625 1.574218-3.808594 3.402344-.417969 1.828124.367188 3.71875 1.953125 4.71875l30.984375 20.566406c1.65625 1.070312 2.402344 3.109375 1.828125 4.996094-.574219 1.886718-2.328125 3.160156-4.300781 3.128906h-58.789063c-1.417969.007812-2.742187.699218-3.5625 1.851562-.824219 1.152344-1.042969 2.632813-.589843 3.972656l12.359374 36.988282c.597657 1.703125.09375 3.597656-1.265624 4.785156-1.359376 1.183594-3.304688 1.421875-4.914063.597656l-58.703125-29.304687c-1.542969-.816407-3.300781-1.125-5.03125-.882813l-130.824219 16.328125c-4.425781.535157-7.757812 4.285157-7.769531 8.742188v6c.007812 2.894531-1.414062 5.601562-3.796875 7.246093-2.378906 1.640626-5.417969 2-8.117187.964844l-41.578126-15.535156c-3.199218-1.183594-5.429687-4.101562-5.734374-7.5-.300782-3.394531 1.378906-6.664062 4.320312-8.390625l60.378906-36.195313c3.328125-2.214843 4.75-6.390624 3.46875-10.175781-1.285156-3.785156-4.953125-6.238281-8.941406-5.976562l-111.84375 16.859375c-7.101562.515625-13.800781-3.324219-16.949219-9.710938l-9.886719-12.269531c41.136719-11.296875 16.949219-61.261719 16.066407-62.941406l101.074219-25.332031c8.003906-2.324219 14.445312-8.273438 17.390624-16.066407l18.007813-48.113281c2.410156-6.542969 7.335937-11.851562 13.683594-14.742188l78.210937-36.101562 20.921875-9.625 94.015625 103.285156 37.957032 15.183594c1.375.5625 2.375 1.78125 2.660156 3.238281.28125 1.457031-.183594 2.960938-1.246094 4l-17.390625 17.390625c-1 1.003906-1.457031 2.425782-1.230469 3.824219.226563 1.398437 1.109375 2.601563 2.378906 3.238281l19.15625 9.621094c1.636719.828125 2.589844 2.585938 2.394532 4.410156-.199219 1.824219-1.503906 3.335938-3.277344 3.800782l-12.183594 3c-1.777344.460937-3.082031 1.972656-3.277344 3.800781-.195312 1.824219.757813 3.578125 2.394532 4.410156l29.21875 14.652344c1.714844.878906 2.65625 2.769531 2.335937 4.667969-.324219 1.894531-1.839843 3.367187-3.746093 3.628906zm0 0" fill="#af8066"/><path d="m282.460938 115.226562 10.460937-110.988281c.242187-1.578125 1.3125-2.898437 2.804687-3.464843 1.488282-.5625 3.167969-.277344 4.390626.746093 18.136718 15.34375 33.472656 33.722657 45.320312 54.3125 15.046875 27.699219 15.984375 60.90625 2.527344 89.40625-1.074219 2.3125-3.09375 4.046875-5.539063 4.757813-2.445312.710937-5.082031.332031-7.226562-1.039063zm0 0" fill="#af8066"/><path d="m220.667969 212.328125-8.824219-35.308594 32.308594-21.539062c29.835937 49.082031-23.484375 56.847656-23.484375 56.847656zm0 0" fill="#cc4b4c"/><path d="m220.667969 221.15625c-4.042969-.003906-7.570313-2.757812-8.550781-6.683594l-8.828126-35.308594c-.910156-3.621093.558594-7.417968 3.664063-9.488281l52.964844-35.3125c2.621093-1.75 5.980469-1.96875 8.808593-.570312 2.828126 1.398437 4.695313 4.199219 4.898438 7.34375.207031 3.148437-1.285156 6.167969-3.910156 7.917969l-47.792969 31.855468 7.320313 29.273438c1.183593 4.730468-1.691407 9.523437-6.417969 10.707031-.703125.179687-1.429688.269531-2.15625.265625zm0 0" fill="#2c2f38"/><path d="m326.601562 124.054688c-3.800781 0-7.175781-2.433594-8.378906-6.039063l-8.828125-26.484375c-.996093-2.996094-.316406-6.292969 1.777344-8.65625 2.097656-2.359375 5.292969-3.425781 8.386719-2.789062 3.09375.632812 5.613281 2.871093 6.609375 5.867187l8.828125 26.484375c.898437 2.695312.441406 5.65625-1.222656 7.957031-1.664063 2.304688-4.332032 3.664063-7.171876 3.660157zm0 0" fill="#2c2f38"/><path d="m419.210938 469.007812c-4.003907-.003906-7.78125-1.84375-10.257813-4.984374l-27.453125-34.316407c-1.972656-2.460937-2.480469-5.789062-1.332031-8.726562 1.148437-2.941407 3.777343-5.042969 6.894531-5.519531 3.117188-.472657 6.253906.75 8.226562 3.214843l19.585938 24.484375v-11.828125c0-4.585937 2.375-8.847656 6.277344-11.261719 3.902344-2.410156 8.773437-2.632812 12.878906-.585937l10.984375 5.492187-12.140625-42.496093c-.972656-3.0625-.207031-6.414063 2.007812-8.75 2.210938-2.332031 5.515626-3.277344 8.628907-2.46875 3.113281.8125 5.535156 3.25 6.332031 6.363281l14.898438 52.144531c1.441406 5.046875-.234376 10.46875-4.273438 13.824219-4.035156 3.351562-9.671875 4.003906-14.371094 1.660156l-13.566406-6.78125v17.277344c.050781 5.628906-3.503906 10.65625-8.828125 12.492188-1.441406.503906-2.960937.765624-4.492187.765624zm0 0" fill="#af8066"/></svg>